<svg id="Layer_1" data-name="Layer 1" xmlns="http://www.w3.org/2000/svg" xmlns:xlink="http://www.w3.org/1999/xlink" viewBox="0 0 170.08 170.08"><defs><style>.cls-1,.cls-2{fill:none;}.cls-1{clip-rule:evenodd;}.cls-3{clip-path:url(#clip-path);}.cls-4{clip-path:url(#clip-path-2);}.cls-5{fill:#5e5c5c;}.cls-6{clip-path:url(#clip-path-3);}</style><clipPath id="clip-path"><path class="cls-1" d="M85,145a60,60,0,1,1,60-60A60,60,0,0,1,85,145ZM85,14.17A70.87,70.87,0,1,0,155.91,85,70.95,70.95,0,0,0,85,14.17Z"/></clipPath><clipPath id="clip-path-2"><rect class="cls-2" x="-2030.82" y="-3427.9" width="14578.18" height="10366.7"/></clipPath><clipPath id="clip-path-3"><path class="cls-1" d="M113.19,56.3,72.47,97,54.08,78.64a5.58,5.58,0,1,0-7.9,7.9l22.34,22.34a5.58,5.58,0,0,0,7.9,0L121.09,64.2a5.59,5.59,0,0,0-7.9-7.9Z"/></clipPath></defs><title>tick</title><g class="cls-3"><g class="cls-4"><rect class="cls-5" x="-36.45" y="-36.45" width="242.97" height="242.97"/></g></g><g class="cls-6"><g class="cls-4"><rect class="cls-5" x="-6.07" y="4.05" width="179.42" height="157.08"/></g></g></svg>